# xmcd CD database file
# Copyright (C) 1996 Ti Kan
#
# Track frame offsets:
#	150
#	17169
#	34769
#	49988
#	67414
# Disc length: 1090 seconds
#
# Revision: 1
# Processed by: cddbd v1.4PL0 Copyright (c) Steve Scherf et al.
# Submitted via: CDCOPY 4.900
#
DISCID=46044005
DTITLE=Vari - Tosca amore disperato (di Lucio Dalla)
DYEAR=1900
DGENRE=
TTITLE0=Iskra Menarini - Amore disperato
TTITLE1=Lalo Cibelli e Gabriel Zagni - Dio Dio Dio
TTITLE2=Vittorio Matteucci - Per te
TTITLE3=Graziano Galatone - e Rosalia Misseri - Luce dei miei occhi
TTITLE4=Rosalia Misseri - Il mio uomo
EXTD=
EXTT0=
EXTT1=
EXTT2=
EXTT3=
EXTT4=
PLAYORDER=
